<?xml version="1.0" encoding="utf-8"?>
<!-- Generator: Adobe Illustrator 24.0.0, SVG Export Plug-In . SVG Version: 6.00 Build 0)  -->
<svg version="1.1" id="Layer_1" xmlns="http://www.w3.org/2000/svg" xmlns:xlink="http://www.w3.org/1999/xlink" x="0px" y="0px"
	 viewBox="0 0 100 100" style="enable-background:new 0 0 100 100;" xml:space="preserve">
<style type="text/css">
	.st0{fill:#51A79A;}
	.st1{fill:#FFFFFF;}
</style>
<g>
	<path class="st0" d="M100,3.2c-4.54,2.11-6.27,6.47-13.42,6.47c-9.42,0-9.42-7.58-18.84-7.58c-9.42,0-9.42,7.58-18.84,7.58
		s-9.42-7.58-18.84-7.58c-9.42,0-9.42,7.58-18.84,7.58C5.33,9.67,3.12,6.73,0,4.51V100h100V3.2z"/>
	<polygon class="st1" points="63.61,47.37 85.62,37.26 63.47,27.45 	"/>
	<g>
		<path class="st1" d="M64.56,39.7H53.89v-4.58h10.68V39.7z M47.79,39.7H37.11v-4.58h10.68V39.7z M31.01,39.7H20.33v-4.58h10.68
			V39.7z M14.23,39.7H3.56v-4.58h10.68V39.7z"/>
	</g>
	<polygon class="st1" points="36.73,69.2 14.72,79.31 36.87,89.12 	"/>
	<g>
		<path class="st1" d="M96.79,81.45H86.11v-4.58h10.68V81.45z M80.01,81.45H69.33v-4.58h10.68V81.45z M63.23,81.45H52.55v-4.58
			h10.68V81.45z M46.45,81.45H35.78v-4.58h10.68V81.45z"/>
	</g>
</g>
</svg>
