<?xml version="1.0" encoding="utf-8"?>
<!-- Generator: Adobe Illustrator 24.0.0, SVG Export Plug-In . SVG Version: 6.00 Build 0)  -->
<svg version="1.1" id="Layer_1" xmlns="http://www.w3.org/2000/svg" xmlns:xlink="http://www.w3.org/1999/xlink" x="0px" y="0px"
	 viewBox="0 0 100 100" style="enable-background:new 0 0 100 100;" xml:space="preserve">
<style type="text/css">
	.st0{fill:#51A79A;}
	.st1{fill:#FFFFFF;}
</style>
<g>
	<path class="st0" d="M100,3.2c-4.54,2.11-6.27,6.47-13.42,6.47c-9.42,0-9.42-7.58-18.84-7.58c-9.42,0-9.42,7.58-18.84,7.58
		s-9.42-7.58-18.84-7.58c-9.42,0-9.42,7.58-18.84,7.58C5.33,9.67,3.12,6.73,0,4.51V100h100V3.2z"/>
	<g>
		<path class="st1" d="M11.2,73.29V43.52h8.79c2.63,0,4.96,0.59,7,1.76c2.04,1.17,3.61,2.84,4.73,4.99c1.12,2.15,1.68,4.62,1.68,7.4
			v1.49c0,2.82-0.56,5.3-1.69,7.44c-1.12,2.14-2.73,3.79-4.8,4.95c-2.08,1.16-4.46,1.74-7.15,1.74H11.2z M16.37,47.69v21.47h3.37
			c2.71,0,4.79-0.85,6.25-2.55c1.45-1.7,2.19-4.13,2.22-7.31v-1.66c0-3.23-0.7-5.7-2.1-7.4c-1.4-1.7-3.44-2.56-6.11-2.56H16.37z"/>
		<path class="st1" d="M62.32,59.18c0,2.92-0.5,5.48-1.51,7.68c-1.01,2.2-2.45,3.89-4.33,5.07c-1.87,1.18-4.03,1.77-6.47,1.77
			c-2.41,0-4.56-0.59-6.45-1.77c-1.89-1.18-3.35-2.86-4.37-5.04c-1.03-2.18-1.55-4.69-1.57-7.54v-1.68c0-2.9,0.52-5.47,1.54-7.69
			c1.03-2.22,2.48-3.92,4.36-5.1c1.87-1.18,4.02-1.77,6.45-1.77s4.58,0.58,6.45,1.75c1.87,1.16,3.32,2.84,4.34,5.03
			c1.02,2.19,1.54,4.73,1.55,7.64V59.18z M57.14,57.63c0-3.3-0.62-5.83-1.87-7.59c-1.25-1.76-3.01-2.64-5.31-2.64
			c-2.24,0-3.98,0.88-5.24,2.63c-1.26,1.75-1.9,4.23-1.93,7.43v1.72c0,3.27,0.64,5.8,1.91,7.59c1.27,1.79,3.04,2.68,5.31,2.68
			c2.29,0,4.05-0.87,5.28-2.62c1.23-1.74,1.85-4.29,1.85-7.65V57.63z"/>
		<path class="st1" d="M90.18,63.6c-0.3,3.18-1.47,5.65-3.52,7.43c-2.04,1.78-4.76,2.67-8.16,2.67c-2.37,0-4.46-0.56-6.27-1.69
			c-1.81-1.12-3.2-2.72-4.18-4.79c-0.98-2.07-1.49-4.48-1.53-7.22v-2.78c0-2.81,0.5-5.28,1.49-7.42c0.99-2.14,2.42-3.79,4.28-4.95
			c1.86-1.16,4.01-1.74,6.45-1.74c3.28,0,5.93,0.89,7.93,2.67c2,1.78,3.17,4.3,3.5,7.55h-5.15c-0.25-2.14-0.87-3.68-1.87-4.63
			c-1-0.95-2.47-1.42-4.41-1.42c-2.25,0-3.98,0.82-5.18,2.47c-1.21,1.64-1.82,4.06-1.85,7.23v2.64c0,3.22,0.58,5.68,1.73,7.37
			c1.15,1.69,2.84,2.54,5.06,2.54c2.03,0,3.56-0.46,4.58-1.37c1.02-0.91,1.67-2.43,1.94-4.56H90.18z"/>
	</g>
	<circle class="st1" cx="29.14" cy="30.26" r="3.71"/>
	<circle class="st1" cx="63.99" cy="33.98" r="3.71"/>
	<circle class="st1" cx="14.84" cy="85.41" r="3.71"/>
	<circle class="st1" cx="79.57" cy="91.29" r="3.71"/>
</g>
</svg>
