<?xml version="1.0" encoding="utf-8"?>
<!-- Generator: Adobe Illustrator 24.0.0, SVG Export Plug-In . SVG Version: 6.00 Build 0)  -->
<svg version="1.1" id="Layer_1" xmlns="http://www.w3.org/2000/svg" xmlns:xlink="http://www.w3.org/1999/xlink" x="0px" y="0px"
	 viewBox="0 0 100 100" style="enable-background:new 0 0 100 100;" xml:space="preserve">
<style type="text/css">
	.st0{fill:#51A79A;}
	.st1{fill:#FFFFFF;}
</style>
<g>
	<path class="st0" d="M100,3.2c-4.54,2.11-6.27,6.47-13.42,6.47c-9.42,0-9.42-7.58-18.84-7.58c-9.42,0-9.42,7.58-18.84,7.58
		s-9.42-7.58-18.84-7.58c-9.42,0-9.42,7.58-18.84,7.58C5.33,9.67,3.12,6.73,0,4.51V100h100V3.2z"/>
	<g>
		<path class="st1" d="M58.41,53.8c0,2.92-0.5,5.48-1.51,7.68c-1.01,2.2-2.45,3.89-4.32,5.07c-1.88,1.18-4.03,1.77-6.47,1.77
			c-2.41,0-4.56-0.59-6.45-1.77c-1.89-1.18-3.35-2.86-4.38-5.04c-1.03-2.18-1.55-4.7-1.56-7.54v-1.68c0-2.9,0.51-5.47,1.54-7.69
			c1.03-2.22,2.48-3.92,4.36-5.1c1.88-1.18,4.02-1.77,6.45-1.77c2.42,0,4.58,0.58,6.45,1.75c1.87,1.17,3.32,2.84,4.34,5.03
			c1.02,2.19,1.54,4.73,1.55,7.64V53.8z M53.24,52.24c0-3.3-0.62-5.83-1.87-7.59s-3.02-2.64-5.31-2.64c-2.24,0-3.98,0.88-5.25,2.63
			c-1.26,1.75-1.9,4.23-1.93,7.43v1.72c0,3.27,0.64,5.8,1.91,7.59c1.27,1.79,3.04,2.68,5.31,2.68c2.29,0,4.05-0.87,5.29-2.62
			c1.23-1.74,1.85-4.29,1.85-7.65V52.24z"/>
		<path class="st1" d="M70.72,76.02h-9.03v-1.85l4.21-3.85c1.11-1.01,1.67-1.85,1.67-2.51c0-0.41-0.13-0.75-0.4-1.01
			c-0.27-0.26-0.65-0.39-1.17-0.39c-0.57,0-1.02,0.16-1.34,0.49c-0.32,0.32-0.49,0.75-0.49,1.28h-2.75c0-1.14,0.42-2.09,1.25-2.84
			c0.83-0.75,1.91-1.13,3.24-1.13c1.41,0,2.49,0.32,3.26,0.95c0.77,0.63,1.15,1.51,1.15,2.64c0,1.05-0.52,2.08-1.56,3.09l-1.45,1.28
			l-2.07,1.67h5.48V76.02z"/>
	</g>
	<circle class="st1" cx="87.17" cy="41.55" r="3.71"/>
	<circle class="st1" cx="20.84" cy="26.69" r="3.71"/>
	<circle class="st1" cx="15.01" cy="85.55" r="3.71"/>
	<circle class="st1" cx="79.75" cy="91.43" r="3.71"/>
</g>
</svg>
