<?xml version="1.0" encoding="utf-8"?>
<!-- Generator: Adobe Illustrator 24.0.0, SVG Export Plug-In . SVG Version: 6.00 Build 0)  -->
<svg version="1.1" id="Layer_1" xmlns="http://www.w3.org/2000/svg" xmlns:xlink="http://www.w3.org/1999/xlink" x="0px" y="0px"
	 viewBox="0 0 100 100" style="enable-background:new 0 0 100 100;" xml:space="preserve">
<style type="text/css">
	.st0{fill:#006e90;}
	.st1{fill:#FFFFFF;}
</style>
<g>
	<path class="st0" d="M16,36C9.373,36,4,41.373,4,48s5.373,12,12,12s12-5.373,12-12S22.627,36,16,36z M16,52c-2.209,0-4-1.791-4-4s1.791-4,4-4
			s4,1.791,4,4S18.209,52,16,52z M48,36c-6.627,0-12,5.373-12,12s5.373,12,12,12s12-5.373,12-12S54.627,36,48,36z M48,52
			c-2.209,0-4-1.791-4-4s1.791-4,4-4s4,1.791,4,4S50.209,52,48,52z M80,36c-6.627,0-12,5.373-12,12s5.373,12,12,12s12-5.373,12-12
			S86.627,36,80,36z M80,52c-2.209,0-4-1.791-4-4s1.791-4,4-4s4,1.791,4,4S82.209,52,80,52z"/>
</g>
</svg>