<?xml version="1.0" encoding="utf-8"?>
<!-- Generator: Adobe Illustrator 24.0.1, SVG Export Plug-In . SVG Version: 6.00 Build 0)  -->
<svg version="1.1" id="Calque_1" xmlns="http://www.w3.org/2000/svg" xmlns:xlink="http://www.w3.org/1999/xlink" x="0px" y="0px"
	 viewBox="0 0 585 167" style="enable-background:new 0 0 585 167;" xml:space="preserve">
<style type="text/css">
	.st0{fill:#52A79B;}
	.st1{fill:#FFFFFF;}
</style>
<g>
	<g>
		<circle class="st0" cx="79.2" cy="81.1" r="56.5"/>
		<path class="st1" d="M79.2,36.1c24.8,0,45,20.2,45,45s-20.2,45-45,45s-45-20.2-45-45S54.4,36.1,79.2,36.1 M79.2,13.1
			c-37.6,0-68,30.4-68,68s30.4,68,68,68s68-30.4,68-68S116.8,13.1,79.2,13.1L79.2,13.1z"/>
	</g>
	<g>
		<ellipse class="st0" cx="291.2" cy="84.1" rx="56.5" ry="56.5"/>
		<path class="st1" d="M291.2,39.1c24.8,0,45,20.2,45,45s-20.2,45-45,45s-45-20.2-45-45S266.4,39.1,291.2,39.1 M291.2,16.1
			c-37.6,0-68,30.4-68,68s30.4,68,68,68s68-30.4,68-68S328.8,16.1,291.2,16.1L291.2,16.1z"/>
	</g>
	<g>
		<ellipse class="st0" cx="503.2" cy="87.1" rx="56.5" ry="56.5"/>
		<path class="st1" d="M503.2,42.1c24.8,0,45,20.2,45,45s-20.2,45-45,45s-45-20.2-45-45S478.4,42.1,503.2,42.1 M503.2,19.1
			c-37.6,0-68,30.4-68,68s30.4,68,68,68s68-30.4,68-68S540.8,19.1,503.2,19.1L503.2,19.1z"/>
	</g>
</g>
</svg>
