<?xml version="1.0" encoding="utf-8"?>
<!-- Generator: Adobe Illustrator 24.0.0, SVG Export Plug-In . SVG Version: 6.00 Build 0)  -->
<svg version="1.1" id="Layer_1" xmlns="http://www.w3.org/2000/svg" xmlns:xlink="http://www.w3.org/1999/xlink" x="0px" y="0px"
	 viewBox="0 0 100 100" style="enable-background:new 0 0 100 100;" xml:space="preserve">
<style type="text/css">
	.st0{fill:#51A79A;}
	.st1{fill:#FFFFFF;}
</style>
<g>
	<path class="st0" d="M100,3.2c-4.54,2.11-6.27,6.47-13.42,6.47c-9.42,0-9.42-7.58-18.84-7.58c-9.42,0-9.42,7.58-18.84,7.58
		s-9.42-7.58-18.84-7.58c-9.42,0-9.42,7.58-18.84,7.58C5.33,9.67,3.12,6.73,0,4.51V100h100V3.2z"/>
	<path class="st1" d="M22.28,60.44l3.85,7.74c0.75,1.51,2.46,2.28,4.08,1.84l8.34-2.26c1.65-0.45,2.81,1.59,1.59,2.78l-6.17,6.05
		c-1.2,1.18-1.4,3.04-0.48,4.45l4.73,7.23c0.93,1.43-0.64,3.17-2.15,2.38l-7.66-4c-1.49-0.78-3.33-0.4-4.38,0.92l-5.42,6.73
		c-1.07,1.33-3.21,0.37-2.92-1.31l1.44-8.52c0.28-1.66-0.65-3.29-2.23-3.89L6.81,77.5c-1.59-0.61-1.34-2.94,0.35-3.19l8.55-1.27
		c1.67-0.25,2.92-1.64,3.01-3.32l0.43-8.63C19.23,59.39,21.52,58.91,22.28,60.44z"/>
	<g>
		<polygon class="st1" points="83.67,65.65 83.67,65.65 83.67,65.64 		"/>
		<path class="st1" d="M85.61,57.28c-1.09-4.94-1.2-6.35-1.44-9.45c-0.07-0.91-0.15-1.95-0.27-3.25c-0.38-4.16-1.5-8.07-2.16-10.11
			c2.04-0.73,3.02-2.28,2.39-5.94c-1.53-8.91-10.89-14.38-20.91-12.22C53.2,18.47,46.31,27.43,47.84,36.34
			c0.69,4.04,2.8,4.81,5.82,4.24c0.45,1.46,1.13,4.21,1.6,8.65c0.39,3.72,1.18,5.98,1.81,7.81c0.68,1.97,1.1,3.16,0.72,5.26
			c-0.69,3.88,0.05,6.89,0.45,8.51c0.09,0.36,0.17,0.63,0.18,0.82c0.07,1.31,0.78,2.65,0.93,2.9c0.28,0.51,0.81,0.79,1.35,0.79
			c0.26,0,0.52-0.06,0.76-0.2c0.75-0.42,1.02-1.36,0.6-2.11c-0.21-0.38-0.52-1.11-0.54-1.55c-0.02-0.39-0.12-0.81-0.27-1.39
			c-0.37-1.49-0.98-3.99-0.4-7.22c0.52-2.9-0.11-4.72-0.85-6.82c-0.61-1.76-1.3-3.75-1.66-7.11c-0.48-4.53-1.18-7.45-1.69-9.14
			c0.55-0.19,1.13-0.39,1.72-0.61c0.19,0.98,0.94,4.54,2.48,8.57l0.5,1.3c1.33,3.4,1.64,4.21,1.65,8.91
			c0.01,5.6,1.81,12.03,3.48,15.63c1.06,2.28,1.09,6.55,1.02,8.01c-0.04,0.86,0.61,1.59,1.47,1.63c0.03,0,0.06,0,0.08,0
			c0.82,0,1.5-0.64,1.55-1.47c0.01-0.24,0.29-6.03-1.3-9.47c-1.27-2.76-3.18-8.85-3.19-14.33c-0.01-5.27-0.48-6.47-1.86-10.02
			l-0.5-1.29c-1.67-4.35-2.37-8.23-2.38-8.27c-0.02-0.1-0.07-0.18-0.1-0.26c0.36-0.13,0.72-0.26,1.09-0.39
			c0.15,0.06,2.87,1.29,3.07,6.58c0.08,1.99,0,3.03-0.06,3.79c-0.15,2-0.11,2.57,1.8,8.66c1.2,3.82,2.3,6.21,3.1,7.95
			c1.08,2.34,1.62,3.51,1.58,6.03c-0.01,0.91-0.04,1.81-0.06,2.7c-0.12,4.13-0.23,8.04,1.14,11.37c1.4,3.4,1.63,5.28,1.64,5.29
			c0.08,0.8,0.76,1.39,1.54,1.39c0.06,0,0.11,0,0.17-0.01c0.85-0.09,1.47-0.85,1.38-1.71c-0.01-0.09-0.26-2.28-1.85-6.15
			c-1.12-2.72-1.02-6.3-0.91-10.1c0.03-0.9,0.05-1.82,0.07-2.75c0.04-3.22-0.76-4.96-1.87-7.37c-0.81-1.76-1.81-3.94-2.95-7.58
			c-1.79-5.72-1.77-5.99-1.66-7.5c0.06-0.83,0.14-1.97,0.06-4.13c-0.15-3.85-1.43-6.19-2.67-7.57c0.63-0.17,1.27-0.33,1.91-0.47
			c0.34-0.07,0.68-0.13,1.02-0.19c-0.1,2.37,0.1,6.6,2,11.81c0.48,1.31,0.87,2.37,1.19,3.24c1.53,4.13,1.53,4.13,2.17,8.35
			c0.38,2.5,1.2,3.99,1.93,5.3c0.88,1.6,1.52,2.75,1.13,5.62c-0.86,6.45,0.07,9.06,0.52,10.31c0.23,0.63,0.82,1.03,1.46,1.03
			c0.17,0,0.35-0.03,0.52-0.09c0.81-0.29,1.23-1.18,0.94-1.98c-0.37-1.02-1.13-3.16-0.37-8.86c0.14-1.08,0.16-1.98,0.1-2.79
			c0.7,4.5,0.9,7.56,0.9,7.59c0.05,0.82,0.74,1.45,1.55,1.45c0.03,0,0.07,0,0.1,0c0.86-0.06,1.5-0.79,1.45-1.65
			c-0.01-0.19-0.31-4.65-1.45-10.93c-0.31-1.69-0.6-3.04-0.86-4.26c-0.69-3.21-1.18-5.52-1.35-11.25
			c-0.18-6.02-2.27-11.18-3.48-13.69c0.48-0.03,0.94-0.06,1.38-0.1c0.58,1.74,1.78,5.7,2.15,9.82c0.12,1.28,0.2,2.31,0.27,3.2
			c0.24,3.15,0.36,4.73,1.51,9.88c1.29,5.83,1.09,7.69,1.09,7.7c-0.16,0.84,0.4,1.65,1.24,1.81c0.1,0.02,0.19,0.03,0.28,0.03
			c0.73,0,1.39-0.52,1.52-1.27C86.79,65.86,87.04,63.76,85.61,57.28z M77.65,48.93c0.18,6.01,0.7,8.44,1.42,11.8
			c0.26,1.19,0.54,2.51,0.84,4.17c0.07,0.4,0.14,0.8,0.21,1.19c-0.31-1.16-0.81-2.06-1.3-2.95c-0.66-1.19-1.28-2.32-1.58-4.27
			c-0.68-4.45-0.72-4.62-2.33-8.96c-0.32-0.87-0.71-1.92-1.19-3.23c-1.9-5.2-1.91-9.34-1.78-11.18c0.66-0.07,1.31-0.12,1.94-0.16
			C74.51,36.48,77.45,42.17,77.65,48.93z"/>
	</g>
</g>
</svg>
