<?xml version="1.0" encoding="utf-8"?>
<!-- Generator: Adobe Illustrator 25.2.3, SVG Export Plug-In . SVG Version: 6.00 Build 0)  -->
<svg version="1.1" id="Layer_1" xmlns="http://www.w3.org/2000/svg" xmlns:xlink="http://www.w3.org/1999/xlink" x="0px" y="0px"
	 viewBox="0 0 100 100" style="enable-background:new 0 0 100 100;" xml:space="preserve">
<style type="text/css">
	.st0{fill:#51A79A;}
	.st1{fill:#FFFFFF;}
</style>
<path class="st0" d="M100,3.4c-4.5,2.1-6.3,6.5-13.4,6.5c-9.4,0-9.4-7.6-18.8-7.6c-9.4,0-9.4,7.6-18.8,7.6s-9.4-7.6-18.8-7.6
	c-9.4,0-9.4,7.6-18.8,7.6C5.3,9.8,3.1,6.9,0,4.7v95.5h100V3.4z"/>
<path class="st1" d="M49.6,68.1c1.1-1.2,9.8-7.9,14.3-11.7c4.5-3.8,7.2-6.4,8.2-7c2.2-1.4,6.5-5,7.7-7.7c0.7-1.5,6.1-12,8.5-14.2
	l0.2,0.2l0.4-0.3l-0.2-0.2l0.8-0.7l0,0c0.1,0.1,0.3,0.1,0.4,0c0.1-0.1,0.1-0.3,0-0.4l0.5-0.4l0,0c0.1,0.1,0.3,0.1,0.4,0
	c0.1-0.1,0.1-0.3,0-0.4l0.5-0.4l0,0c0.1,0.1,0.3,0.1,0.4,0c0.1-0.1,0.1-0.3,0-0.4l0,0c0.1-0.2,0.1-0.5-0.1-0.7l-3.4-4.2
	c-0.2-0.3-0.6-0.3-0.9-0.1L87,19.8l0,0c-0.1-0.1-0.3-0.1-0.4,0c-0.1,0.1-0.1,0.3,0,0.4l-0.5,0.4l0,0c-0.1-0.1-0.3-0.1-0.4,0
	c-0.1,0.1-0.1,0.3,0,0.4l-0.5,0.4l0,0c-0.1-0.1-0.3-0.1-0.4,0c-0.1,0.1-0.1,0.3,0,0.4l-0.2,0.2l-0.2-0.2L83.8,22l0.2,0.2
	c-2.6,1.9-13.9,5.1-15.6,5.5c-2.9,0.7-7.3,4.2-9.1,6.1c-0.8,0.9-3.9,3-8.5,6.7c-4.6,3.7-12.9,10.9-14.3,11.7c-3,1.6-3.2,2.7-4.1,4.5
	c-0.9,1.8-0.3,2.6,0.9,4.1l7.1,8.7c1.2,1.5,1.9,2.2,3.8,1.6C46.3,70.7,47.4,70.7,49.6,68.1z"/>
<polygon class="st1" points="20.2,42.9 24.1,40.3 28.8,43.5 32.5,44.2 32.9,45.3 30.4,47.6 26.6,50.4 22.6,51.2 17.4,48.5 
	15.3,46.5 16.9,44.6 "/>
<path class="st1" d="M78.2,56.1l3.4,4.6c0,0,1.6,0.7,2.3,0.4c0.7-0.2,2.2,0.4,2.8,0.3s1.6-0.5,1.6-0.5l4.4,0.5l0.5-3.1l-0.9-1.8
	c0,0-0.9-0.4-2.4-0.9c-1.5-0.4-1.5-0.4-3.2-0.7c-1.7-0.3-2.8,0.1-3.6-0.8c-0.8-0.9-0.6-1.8-1.5-1.5c-0.9,0.3-2.1,0.5-2.6,0.7
	S78.2,56.1,78.2,56.1z"/>
<path class="st1" d="M54.6,23.9l-2.3,3.4c0,0-1,0.8-1.7,1s-1.2,0.3-2,1.3c-0.8,0.9-1.1,1.2-1.1,1.2s-1-0.3-1.4,0
	c-0.4,0.3-1.2,0.6-1.2,0.6L44,29.9l0.7-2.2c0,0,0.6-2.5,0.8-3s2-2.7,2.4-2.7c0.4,0.1,2.4-0.5,2.4-0.5l1.7-0.1l1.9,0.2L54.6,23.9z"/>
<path class="st1" d="M18.1,21.4c0,0.1,0,0.2,0.1,0.3c0.1,0.1,0.4,0.2,0.6,0.3c0.3,0.2,0.6,0.3,0.9,0.5c0.7,0.5,1.5,0.9,2.3,1.4
	c0.5,0.3,1.2,0.7,1.5,1.1c0.1,0.2,0.1,0.4,0.2,0.5c0,0.2-0.1,0.3-0.2,0.5c-0.2,0.3-0.4,0.4-0.6,0.7c-0.4,0.4-0.7,0.9-1.1,1.3
	c-1,0.9-1.3,1.8-1.6,2.7c-0.1,0.3-0.2,0.5-0.4,0.8c-0.2,0.3-0.2,0.7-0.4,1c-0.2,0.4-0.6,0.8-1.3,1.1c-1,0.4-2.4,0.9-3.5,1
	c-0.9,0-1.6-0.4-2.1-0.7c-0.3-0.2-0.7-0.4-0.9-0.7c-0.5-0.5-1.2-1-1.7-1.5c-0.7-0.8-1.1-1.9-1-3c0.1-0.6,0.3-1.2,0.7-1.7
	c0.4-0.5,0.9-1.2,1.2-1.7c0.6-1.4-0.5-2.4,0.4-3.9c0.2-0.3,0.5-0.6,1.1-0.7c0.5-0.1,1.3,0,1.8,0c0.9,0.1,1.9-0.1,2.7,0.1
	c0.1,0,0.2,0.1,0.4,0.1c0.1,0,0.3,0.1,0.4,0.1c0.1,0.1,0.1,0.2,0.3,0.3C18.1,21.5,18.3,21.6,18.1,21.4z"/>
<path class="st1" d="M10.5,65.3c-1.2,0.2-3.4-0.3-3.3-1.7c0-1.5,1.3-1.7,2.2-2.6c0.7-0.7,1.6-0.9,2.5-1.3c1.8-0.9,2.4-0.9,4.4,0.2
	c1.4,0.7,2.2,1.3,1.9,2.9c-0.1,0.7-0.4,2.1-1.2,2.5c-0.9,0.4-2.4,0-3.3,0c-0.4,0-0.9,0-1.3,0c-0.6,0-0.9-0.2-1.5-0.3"/>
<path class="st1" d="M31.8,32.5c-0.1-0.9,0.2-1.8,1-2.3s1.8-0.4,2.4,0.3c0.6,0.7,0.5,1.8-0.2,2.3c-1,0.4-2.3,0.1-2.9-0.8"/>
<path class="st1" d="M70.1,17.3c0.3,0,0.7,0,1,0c0.1,0.7-0.5,1.5-1.2,1.6c-0.7,0-1.4-0.8-1.2-1.5c0.2-0.7,1.3-1,1.8-0.5"/>
<path class="st1" d="M91.7,41c-0.4-0.8,0.5-1.8,1.4-1.7c0.9,0.2,1.4,1.2,1.2,2.1c-0.2,0.9-0.9,1.6-1.8,1.9c-0.8-0.9-1.1-2.1-0.9-3.3
	"/>
<path class="st1" d="M5.2,51.2c-0.9-0.5-0.9-2-0.1-2.7s2.1-0.7,3-0.2c1,0.5,1.7,1.6,1.6,2.7c-0.1,1.1-1.3,2-2.4,1.7
	c-0.4-0.1-0.7-0.3-1-0.6c-0.6-0.5-1.1-1-1.5-1.6"/>
</svg>
