<?xml version="1.0" encoding="utf-8"?>
<!-- Generator: Adobe Illustrator 24.0.0, SVG Export Plug-In . SVG Version: 6.00 Build 0)  -->
<svg version="1.1" id="Layer_1" xmlns="http://www.w3.org/2000/svg" xmlns:xlink="http://www.w3.org/1999/xlink" x="0px" y="0px"
	 viewBox="0 0 100 100" style="enable-background:new 0 0 100 100;" xml:space="preserve">
<style type="text/css">
	.st0{fill:#51A79A;}
	.st1{fill:#FFFFFF;}
</style>
<g>
	<path class="st0" d="M100,3.2c-4.54,2.11-6.27,6.47-13.42,6.47c-9.42,0-9.42-7.58-18.84-7.58c-9.42,0-9.42,7.58-18.84,7.58
		s-9.42-7.58-18.84-7.58c-9.42,0-9.42,7.58-18.84,7.58C5.33,9.67,3.12,6.73,0,4.51V100h100V3.2z"/>
	<circle class="st1" cx="22.44" cy="52.99" r="3.71"/>
	<circle class="st1" cx="53.71" cy="26.71" r="3.71"/>
	<circle class="st1" cx="90.89" cy="49.28" r="3.71"/>
	<circle class="st1" cx="72.17" cy="81.41" r="3.71"/>
	<circle class="st1" cx="10.03" cy="70.84" r="3.71"/>
	<g>
		<g>
			<path class="st1" d="M37.93,44.36h-5.17L19.49,23.24v21.12h-5.17V14.59h5.17l13.31,21.2v-21.2h5.13V44.36z"/>
		</g>
	</g>
	<g>
		<g>
			<path class="st1" d="M68.82,44.06V55.1h-5.17V25.33h11.39c3.33,0,5.97,0.87,7.92,2.6c1.96,1.73,2.93,4.03,2.93,6.88
				c0,2.92-0.96,5.19-2.87,6.82c-1.92,1.62-4.6,2.44-8.05,2.44H68.82z M68.82,39.89h6.22c1.84,0,3.24-0.43,4.21-1.3
				c0.97-0.87,1.45-2.12,1.45-3.75c0-1.61-0.49-2.89-1.47-3.85c-0.98-0.96-2.33-1.46-4.05-1.48h-6.36V39.89z"/>
		</g>
	</g>
	<g>
		<g>
			<path class="st1" d="M43.77,86.02c0-1.31-0.46-2.32-1.38-3.03c-0.92-0.71-2.58-1.42-4.98-2.15s-4.31-1.53-5.73-2.41
				c-2.71-1.7-4.07-3.93-4.07-6.67c0-2.4,0.98-4.38,2.93-5.93c1.96-1.55,4.5-2.33,7.62-2.33c2.07,0,3.92,0.38,5.54,1.14
				c1.62,0.76,2.9,1.85,3.82,3.26c0.93,1.41,1.39,2.98,1.39,4.69h-5.15c0-1.55-0.49-2.77-1.46-3.65c-0.98-0.88-2.37-1.32-4.18-1.32
				c-1.69,0-3,0.36-3.94,1.08c-0.93,0.72-1.4,1.73-1.4,3.03c0,1.09,0.5,2,1.51,2.73c1.01,0.73,2.67,1.44,4.99,2.13
				c2.32,0.69,4.18,1.47,5.58,2.35c1.4,0.88,2.43,1.89,3.09,3.03c0.65,1.14,0.98,2.47,0.98,4c0,2.48-0.95,4.45-2.85,5.92
				c-1.9,1.47-4.48,2.2-7.74,2.2c-2.15,0-4.13-0.4-5.94-1.2c-1.81-0.8-3.21-1.9-4.21-3.3c-1-1.4-1.5-3.04-1.5-4.91h5.17
				c0,1.69,0.56,3,1.68,3.93c1.12,0.93,2.72,1.39,4.8,1.39c1.8,0,3.15-0.36,4.06-1.09C43.32,88.19,43.77,87.22,43.77,86.02z"/>
			<path class="st1" d="M53.02,65.82c0-0.76,0.24-1.4,0.73-1.9c0.48-0.5,1.18-0.76,2.07-0.76s1.6,0.25,2.09,0.76
				c0.49,0.5,0.74,1.14,0.74,1.9c0,0.75-0.24,1.37-0.74,1.87c-0.49,0.5-1.19,0.75-2.09,0.75s-1.59-0.25-2.07-0.75
				C53.26,67.2,53.02,66.57,53.02,65.82z M58.29,93.69h-4.97V71.57h4.97V93.69z"/>
		</g>
	</g>
</g>
</svg>
