<?xml version="1.0" encoding="utf-8"?>
<!-- Generator: Adobe Illustrator 24.1.0, SVG Export Plug-In . SVG Version: 6.00 Build 0)  -->
<svg version="1.1" id="Layer_1" xmlns="http://www.w3.org/2000/svg" xmlns:xlink="http://www.w3.org/1999/xlink" x="0px" y="0px"
	 viewBox="0 0 100 100" style="enable-background:new 0 0 100 100;" xml:space="preserve">
<style type="text/css">
	.st0{fill:#51A79A;}
</style>
<g>
	<g>
		<path class="st0" d="M100,78.9c-4.5,2.1-6.3,6.5-13.4,6.5c-9.4,0-9.4-7.6-18.8-7.6c-9.4,0-9.4,7.6-18.8,7.6s-9.4-7.6-18.8-7.6
			c-9.4,0-9.4,7.6-18.8,7.6c-5.9,0-8.1-2.9-11.2-5.2V100h100V78.9z"/>
	</g>
	<g>
		<path class="st0" d="M44.9,81.2c-2.1,0-4-1.2-5-3.1L10.2,18.8c-1.4-2.7-0.3-6.1,2.5-7.4c2.7-1.4,6.1-0.3,7.4,2.5l24.7,49.5L54,45
			c1.4-2.7,4.7-3.8,7.4-2.5c2.7,1.4,3.8,4.7,2.5,7.4L49.9,78.1C48.9,80,47,81.2,44.9,81.2z"/>
	</g>
	<g>
		<polygon class="st0" points="64.3,33.4 67.9,54.6 46.6,45.5 		"/>
	</g>
	<g>
		<g>
			<path class="st0" d="M69.7,32.4L61.8,28c-0.7-0.4-1-1.3-0.6-2l9.3-16.7c0.4-0.7,1.3-1,2-0.6l7.9,4.4c0.7,0.4,1,1.3,0.6,2
				l-9.3,16.7C71.3,32.6,70.4,32.8,69.7,32.4z"/>
		</g>
		<g>
			<path class="st0" d="M92.6,40.7c-0.6,0-1.2-0.1-1.7-0.4l-14.2-7.9c-0.8-0.4-1.3-1.1-1.6-2v0l-0.8-2.4C74,27,74.1,26,74.5,25.2
				l2.2-3.9c0.4-0.8,1.2-1.4,2.1-1.7l2.6-0.8c0.9-0.3,1.8-0.2,2.6,0.3L98.2,27c0.8,0.5,1.4,1.2,1.7,2.1c0.3,0.9,0.1,1.8-0.3,2.6
				l-3.9,7.1c-0.4,0.8-1.2,1.4-2.1,1.7C93.2,40.6,92.9,40.7,92.6,40.7z M78,29.4c0,0.1,0.1,0.2,0.2,0.2l14.2,7.9
				c0.1,0.1,0.2,0.1,0.3,0c0.1,0,0.2-0.1,0.3-0.2l3.9-7.1c0.1-0.2,0-0.5-0.2-0.6l-14.2-7.9c-0.1-0.1-0.2-0.1-0.3,0l-2.6,0.8
				c-0.1,0-0.2,0.1-0.3,0.2l-2.2,3.9c-0.1,0.1-0.1,0.2,0,0.3L78,29.4z"/>
		</g>
		<g>
			<path class="st0" d="M60.2,22.7c-0.6,0-1.2-0.1-1.7-0.4l-14.2-7.9c-1.7-0.9-2.3-3-1.4-4.7l3.9-7.1c0.4-0.8,1.2-1.4,2.1-1.7
				c0.9-0.3,1.8-0.1,2.6,0.3l14.2,7.9c0.8,0.4,1.3,1.1,1.6,2v0l0.8,2.4c0.3,0.9,0.2,1.9-0.3,2.8l-2.2,3.9c-0.4,0.8-1.2,1.4-2.1,1.7
				l-2.6,0.8C60.9,22.6,60.5,22.7,60.2,22.7z M50,3.8c0,0-0.1,0-0.1,0c-0.1,0-0.2,0.1-0.3,0.2l-3.9,7.1c-0.1,0.2,0,0.5,0.2,0.6
				L60,19.6c0.1,0.1,0.2,0.1,0.3,0l2.6-0.8c0.1,0,0.2-0.1,0.3-0.2l2.2-3.9c0.1-0.1,0.1-0.2,0-0.3L64.6,12c0-0.1-0.1-0.2-0.2-0.2
				L50.2,3.9C50.1,3.8,50,3.8,50,3.8z"/>
		</g>
	</g>
</g>
</svg>
