<?xml version="1.0" encoding="utf-8"?>
<!-- Generator: Adobe Illustrator 24.0.0, SVG Export Plug-In . SVG Version: 6.00 Build 0)  -->
<svg version="1.1" id="Layer_1" xmlns="http://www.w3.org/2000/svg" xmlns:xlink="http://www.w3.org/1999/xlink" x="0px" y="0px"
	 viewBox="0 0 100 100" style="enable-background:new 0 0 100 100;" xml:space="preserve">
<style type="text/css">
	.st0{fill:#51A79A;}
	.st1{fill:#FFFFFF;}
</style>
<g>
	<g>
		<path class="st0" d="M100,52.68c-4.54,2.11-6.27,6.47-13.42,6.47c-9.42,0-9.42-7.58-18.84-7.58c-9.42,0-9.42,7.58-18.84,7.58
			s-9.42-7.58-18.84-7.58c-9.42,0-9.42,7.58-18.84,7.58c-5.87,0-8.09-2.94-11.21-5.16V100h100V52.68z"/>
		<g>
			<g>
				<g>
					<path class="st1" d="M47.27,68.22l29.19-53.33c2.33-4.25,0.77-9.58-3.48-11.9l0,0c-4.25-2.33-9.58-0.77-11.9,3.48L31.88,59.8
						c-6.86,0.05-13.47,4.02-16.46,10.93c-3.34,7.73-0.73,17.02,6.17,21.85c8.97,6.28,21.13,3.26,26.24-6.08
						C51.09,80.55,50.64,73.58,47.27,68.22z"/>
				</g>
				<g>
					<path class="st0" d="M32.03,97.4c-4,0-7.96-1.23-11.31-3.57c-7.54-5.28-10.36-15.25-6.7-23.71
						c2.96-6.85,9.55-11.42,16.94-11.82L59.73,5.73c1.32-2.41,3.5-4.17,6.14-4.94c2.64-0.77,5.42-0.47,7.83,0.85
						c2.41,1.32,4.17,3.5,4.94,6.14c0.77,2.64,0.47,5.42-0.85,7.83L49.03,68.19c3.33,5.88,3.4,13.09,0.15,19.04
						c-2.67,4.87-7.3,8.4-12.72,9.66C35,97.23,33.51,97.4,32.03,97.4z M68.77,3.43c-0.68,0-1.37,0.1-2.04,0.29
						c-1.86,0.54-3.39,1.78-4.32,3.48L32.79,61.31l-0.9,0.01c-6.55,0.05-12.47,3.98-15.07,10.01c-3.04,7.02-0.61,15.62,5.65,20
						c3.94,2.76,8.66,3.68,13.29,2.59c4.57-1.07,8.48-4.04,10.74-8.16c2.87-5.25,2.67-11.66-0.52-16.73l-0.48-0.76l29.62-54.12
						c0.93-1.7,1.14-3.65,0.6-5.51c-0.54-1.86-1.78-3.39-3.48-4.32C71.16,3.73,69.97,3.43,68.77,3.43z"/>
				</g>
			</g>
			<g>
				<circle class="st0" cx="31.92" cy="78" r="8.8"/>
			</g>
			<g>
				
					<rect x="19.04" y="53.97" transform="matrix(0.4799 -0.8773 0.8773 0.4799 -26.5707 67.7038)" class="st0" width="49.56" height="4.58"/>
			</g>
		</g>
	</g>
	<polygon class="st0" points="7.22,18.4 15.35,0.37 23.48,18.4 	"/>
	<polygon class="st0" points="7.01,34.01 15.15,52.04 23.28,34.01 	"/>
</g>
</svg>
