<?xml version="1.0" encoding="utf-8"?>
<!-- Generator: Adobe Illustrator 24.0.0, SVG Export Plug-In . SVG Version: 6.00 Build 0)  -->
<svg version="1.1" id="Layer_1" xmlns="http://www.w3.org/2000/svg" xmlns:xlink="http://www.w3.org/1999/xlink" x="0px" y="0px"
	 viewBox="0 0 100 100" style="enable-background:new 0 0 100 100;" xml:space="preserve">
<style type="text/css">
	.st0{fill:#51A79A;}
	.st1{fill:#FFFFFF;}
</style>
<g>
	<path class="st0" d="M100,3.2c-4.54,2.11-6.27,6.47-13.42,6.47c-9.42,0-9.42-7.58-18.84-7.58c-9.42,0-9.42,7.58-18.84,7.58
		s-9.42-7.58-18.84-7.58c-9.42,0-9.42,7.58-18.84,7.58C5.33,9.67,3.12,6.73,0,4.51V100h100V3.2z"/>
	<circle class="st1" cx="87.17" cy="27.67" r="3.71"/>
	<circle class="st1" cx="26.15" cy="20.24" r="3.71"/>
	<circle class="st1" cx="50" cy="88.71" r="3.71"/>
	<circle class="st1" cx="90.89" cy="37.34" r="3.71"/>
	<circle class="st1" cx="39.46" cy="18.41" r="3.71"/>
	<circle class="st1" cx="32.03" cy="27.67" r="3.71"/>
	<circle class="st1" cx="43.71" cy="34.36" r="3.71"/>
	<circle class="st1" cx="62.21" cy="32.81" r="3.71"/>
	<circle class="st1" cx="81.5" cy="16.53" r="3.71"/>
	<circle class="st1" cx="93.05" cy="19.67" r="3.71"/>
	<circle class="st1" cx="10.03" cy="29.92" r="3.71"/>
	<circle class="st1" cx="21.95" cy="34.36" r="3.71"/>
	<circle class="st1" cx="13.74" cy="18.41" r="3.71"/>
	<circle class="st1" cx="58.95" cy="16.22" r="3.71"/>
	<circle class="st1" cx="53.71" cy="26.2" r="3.71"/>
	<circle class="st1" cx="70.29" cy="20.24" r="3.71"/>
	<circle class="st1" cx="75.88" cy="33.63" r="3.71"/>
	<polygon class="st1" points="41.8,63.53 50.15,78.16 58.5,63.53 	"/>
	<g>
		<rect x="47.71" y="45.88" class="st1" width="4.58" height="17.65"/>
	</g>
</g>
</svg>
