<?xml version="1.0" encoding="utf-8"?>
<!-- Generator: Adobe Illustrator 24.0.2, SVG Export Plug-In . SVG Version: 6.00 Build 0)  -->
<svg version="1.1" id="Layer_1" xmlns="http://www.w3.org/2000/svg" xmlns:xlink="http://www.w3.org/1999/xlink" x="0px" y="0px"
	 viewBox="0 0 100 100" style="enable-background:new 0 0 100 100;" xml:space="preserve">
<style type="text/css">
	.st0{fill:#51A79A;}
	.st1{fill:#FFFFFF;}
</style>
<path class="st0" d="M99.7,3.5C95.2,5.6,93.5,10,86.3,10c-9.4,0-9.4-7.6-18.8-7.6c-9.4,0-9.4,7.6-18.8,7.6S39.4,2.4,30,2.4
	c-9.4,0-9.4,7.6-18.8,7.6C5.4,10,3.2,7.1,0.1,4.8V100h99.6V3.5z"/>
<g>
	<path class="st1" d="M46.4,57v11h-5.2V38.4h11.3c3.3,0,5.9,0.9,7.9,2.6c1.9,1.7,2.9,4,2.9,6.9c0,2.9-1,5.2-2.9,6.8
		c-1.9,1.6-4.6,2.4-8,2.4H46.4z M46.4,52.9h6.2c1.8,0,3.2-0.4,4.2-1.3c1-0.9,1.4-2.1,1.4-3.7c0-1.6-0.5-2.9-1.5-3.8
		c-1-1-2.3-1.5-4-1.5h-6.3V52.9z"/>
</g>
<circle class="st1" cx="86.9" cy="41.8" r="3.7"/>
<circle class="st1" cx="20.8" cy="27" r="3.7"/>
<circle class="st1" cx="15" cy="85.6" r="3.7"/>
<circle class="st1" cx="79.5" cy="91.5" r="3.7"/>
</svg>
