<?xml version="1.0" encoding="utf-8"?>
<!-- Generator: Adobe Illustrator 24.0.0, SVG Export Plug-In . SVG Version: 6.00 Build 0)  -->
<svg version="1.1" id="Layer_1" xmlns="http://www.w3.org/2000/svg" xmlns:xlink="http://www.w3.org/1999/xlink" x="0px" y="0px"
	 viewBox="0 0 100 100" style="enable-background:new 0 0 100 100;" xml:space="preserve">
<style type="text/css">
	.st0{fill:#52A79B;}
	.st1{fill:#FFFFFF;}
</style>
<g>
	<path class="st0" d="M100.01,29.88c-4.54,2.11-6.27,6.47-13.42,6.47c-9.42,0-9.42-7.58-18.84-7.58c-9.42,0-9.42,7.58-18.84,7.58
		s-9.42-7.58-18.84-7.58c-9.42,0-9.42,7.58-18.84,7.58c-5.87,0-8.09-2.94-11.21-5.16V100h100V29.88z"/>
	<g>
		<path class="st1" d="M48.92,53.37c-1.7,0-3.23-0.2-4.66-0.61l1.25-4.35c1.02,0.29,2.14,0.44,3.41,0.44c1.9,0,3.46-0.32,4.89-1
			l1.95,4.09C53.73,52.9,51.49,53.37,48.92,53.37z M10.64,53.36c-5.19-0.11-7.94-2.17-10.36-3.98L0.1,49.25l2.71-3.63l0.18,0.13
			c2.15,1.61,4.01,3,7.75,3.08L10.64,53.36z M89.45,53.18l-0.66-4.48c2.66-0.39,4.24-1.58,6.07-2.95c0.61-0.46,1.23-0.91,1.87-1.34
			l2.5,3.77c-0.58,0.38-1.12,0.79-1.67,1.2C95.54,50.9,93.24,52.62,89.45,53.18z M82.85,52.95c-3.09-0.71-5.12-2.23-6.91-3.57
			c-0.82-0.61-1.59-1.19-2.44-1.68l2.26-3.92c1.08,0.62,2,1.31,2.89,1.97c1.64,1.23,3.06,2.29,5.22,2.79L82.85,52.95z M17.21,52.25
			l-1.72-4.19c1.38-0.57,2.51-1.41,3.7-2.3c1.37-1.02,2.92-2.18,4.96-2.97L25.79,47c-1.47,0.57-2.64,1.45-3.89,2.38
			C20.54,50.4,19.13,51.46,17.21,52.25z M38.48,49.66l-0.37-0.28c-2.11-1.58-3.94-2.95-7.53-3.08l0.16-4.52
			c5.01,0.18,7.7,2.2,10.08,3.97l0.36,0.27L38.48,49.66z M60.91,48.52l-2.61-3.7c2.25-1.59,4.96-3.06,9.54-3.06c0,0,0,0,0,0
			c0.52,0,1.01,0.02,1.48,0.06l-0.35,4.51c-0.36-0.03-0.74-0.04-1.14-0.04c0,0,0,0,0,0C64.69,46.29,62.86,47.15,60.91,48.52z"/>
	</g>
	<polygon class="st0" points="71.07,24.26 93.09,14.14 70.93,4.34 	"/>
	<g>
		<path class="st0" d="M72.03,16.59H61.35v-4.58h10.68V16.59z M55.25,16.59H44.57v-4.58h10.68V16.59z M38.47,16.59H27.8v-4.58h10.68
			V16.59z M21.69,16.59H11.02v-4.58h10.68V16.59z M4.92,16.59H0.05v-4.58h4.87V16.59z"/>
	</g>
	<polygon class="st1" points="35.81,72.64 13.79,82.75 35.95,92.56 	"/>
	<g>
		<path class="st1" d="M95.86,84.89H85.18v-4.58h10.68V84.89z M79.08,84.89H68.4v-4.58h10.68V84.89z M62.3,84.89H51.63v-4.58H62.3
			V84.89z M45.53,84.89H34.85v-4.58h10.68V84.89z"/>
	</g>
</g>
</svg>
