<?xml version="1.0" encoding="utf-8"?>
<!-- Generator: Adobe Illustrator 24.0.0, SVG Export Plug-In . SVG Version: 6.00 Build 0)  -->
<svg version="1.1" id="Layer_1" xmlns="http://www.w3.org/2000/svg" xmlns:xlink="http://www.w3.org/1999/xlink" x="0px" y="0px"
	 viewBox="0 0 100 100" style="enable-background:new 0 0 100 100;" xml:space="preserve">
<style type="text/css">
	.st0{fill:#52A79B;}
	.st1{fill:#FFFFFF;}
</style>
<path class="st0" d="M100,3.2c-4.54,2.11-6.27,6.47-13.42,6.47c-9.42,0-9.42-7.58-18.84-7.58c-9.42,0-9.42,7.58-18.84,7.58
	s-9.42-7.58-18.84-7.58c-9.42,0-9.42,7.58-18.84,7.58C5.33,9.67,3.12,6.73,0,4.51V100h100V3.2z"/>
<path class="st1" d="M5.66,17.33c0.71-0.24,21.68-6.18,21.68-6.18l4.29,3.09h6.91l2.62,5.94l-1.91,7.13l-13.1,5.48l-9.77-0.96
	l-6.43-6.89H5.66V17.33z"/>
<polygon class="st1" points="60.69,16.86 69.03,11.15 79.04,18.04 86.9,19.47 87.85,21.97 82.37,26.84 74.27,32.8 65.69,34.45 
	54.5,28.74 50,24.46 53.54,20.42 "/>
<path class="st1" d="M87.85,31.83l5.72,4.52l3.1,1.9l-2.14,5.23l2.14,2.41v4.96l-4.41,2.14c0,0-7.27,1.66-8.46,1.19
	c-1.19-0.48-15.46,0-14.87-1.9c0.58-1.9,0-4.28,0-4.28l2.01-6.66l4.53-4.04l4.29-2.85h3.04L87.85,31.83z"/>
<path class="st1" d="M55.45,39.68l-11.91-7.85c0,0-4.29-0.21-5.72,0.96s-5.48,0.94-6.67,1.65c-1.19,0.71-3.34,2.62-3.34,2.62
	l-10.72,2.62l1.43,7.61l3.57,3.57c0,0,2.38,0.24,6.19,0s3.81-0.24,7.98-0.95s6.31-2.62,8.93-1.19c2.62,1.43,2.92,3.78,4.8,2.25
	s4.5-2.96,5.45-3.91C56.4,46.1,55.45,39.68,55.45,39.68z"/>
<path class="st1" d="M5.66,58.22c1.67,0,8.34,0,8.34,0s5.72,0.71,6.43,0c0.71-0.71,5.96-1.39,5.96-1.39s3.1,0.27,4.29,0
	c1.19-0.27,2.62,0.79,3.34,0.85c0.71,0.06,7.15,3.37,7.15,3.37s-0.71,0.73,0,1.44s0,3.57,0,3.57l-2.86,3.09c0,0-2.14,1.66-3.57,2.38
	c-1.43,0.71-3.81,3.8-4.76,3.8c-0.95,0-6.67,1.19-8.1,0c-1.43-1.19-5.48-4.28-6.67-4.28s-6.19,0-6.91-0.24
	c-0.71-0.24-4.53-0.95-4.29-2.62s0.69-3.09-0.01-4.52S5.66,58.22,5.66,58.22z"/>
<path class="st1" d="M53.54,61.06l13.1-1.89c0,0,4.05,0.68,5.96,1.89c1.91,1.2,3.34,2.15,7.15,1.92c3.81-0.24,5,0.04,5,0.04
	s1.43,3.1,3.1,3.31c1.67,0.22,4.05,1.64,4.05,1.64l-1.43,4.99l-6.67,2.91c0,0-7.15,3.99-8.81,4.46s-10.72,1.19-11.44,0
	c-0.71-1.19-6.19-4.46-6.19-4.46l-3.81-3.62L50,67.49L53.54,61.06z"/>
<path class="st1" d="M26.82,80.98c0.3-0.01,0.62,0.07,0.91,0.01c0.44-0.09,0.87-0.46,1.25-0.7c0.66-0.43,1.35-0.77,2.06-1.11
	c1.86-0.88,3.59-1.83,5.4-2.81c1.19-0.64,2.63-1.47,3.97-1.74c0.49-0.1,1.05-0.08,1.54-0.05c0.51,0.03,0.64,0.2,1.06,0.47
	c0.56,0.37,0.94,0.68,1.44,1.15c0.84,0.79,1.87,1.25,2.66,2.1c1.62,1.76,3.86,2.42,6.06,3.2c0.66,0.23,1.3,0.54,1.95,0.81
	c0.82,0.35,1.73,0.56,2.53,0.93c1.04,0.49,1.7,1.12,1.98,2.22c0.4,1.56,0.83,3.74,0.21,5.3c-0.51,1.31-2.1,2.1-3.27,2.69
	c-0.8,0.4-1.54,0.78-2.39,1.04c-1.77,0.55-3.45,1.35-5.23,1.84c-2.66,0.74-5.99,0.91-8.7,0.26c-1.49-0.36-2.86-0.9-4.17-1.68
	c-1.21-0.72-2.45-1.73-3.74-2.29c-3.26-1.43-6.84-0.24-10.07-1.98c-0.76-0.41-1.25-0.93-1.13-1.85c0.1-0.74,0.87-1.9,1.29-2.5
	c0.87-1.25,1.11-2.78,2.23-3.81c0.21-0.19,0.38-0.31,0.59-0.46c0.16-0.12,0.4-0.38,0.58-0.48c0.31-0.17,0.58-0.1,0.9-0.31
	C27.13,81,27.44,80.71,26.82,80.98z"/>
</svg>
