<?xml version="1.0" encoding="utf-8"?>
<!-- Generator: Adobe Illustrator 24.0.0, SVG Export Plug-In . SVG Version: 6.00 Build 0)  -->
<svg version="1.1" id="Layer_1" xmlns="http://www.w3.org/2000/svg" xmlns:xlink="http://www.w3.org/1999/xlink" x="0px" y="0px"
	 viewBox="0 0 100 100" style="enable-background:new 0 0 100 100;" xml:space="preserve">
<style type="text/css">
	.st0{fill:#51A79A;}
	.st1{fill:#FFFFFF;}
</style>
<g>
	<path class="st0" d="M100,45.87c-4.67,1.96-6.44,6.05-13.79,6.05c-9.66,0-9.66-7.08-19.32-7.08c-9.66,0-9.66,7.08-19.32,7.08
		c-9.66,0-9.66-7.08-19.32-7.08s-9.66,7.08-19.32,7.08c-4.35,0-6.74-1.44-8.94-3.02V100h100V45.87z"/>
	<polygon class="st0" points="40.39,23.44 48.52,5.41 56.66,23.44 	"/>
	<polygon class="st1" points="40.19,75.57 48.32,93.6 56.45,75.57 	"/>
	<g>
		<path class="st0" d="M16.81,35.17c-1.23,0.9-2.39,1.75-3.82,2.32l1.7,4.25c1.97-0.79,3.42-1.85,4.82-2.88
			c1.27-0.93,2.47-1.81,3.97-2.38l-1.62-4.28C19.78,32.99,18.2,34.15,16.81,35.17z"/>
		<path class="st0" d="M28.55,31.2l-0.16,4.57c3.7,0.13,5.57,1.5,7.73,3.08l0.38,0.27l2.69-3.7l-0.37-0.27
			C36.4,33.39,33.65,31.38,28.55,31.2z"/>
		<path class="st0" d="M0,35.03v5.54c1.98,1.19,4.41,2.18,8.01,2.27l0.1-4.58C4.3,38.18,2.4,36.78,0.2,35.17L0,35.03z"/>
		<path class="st0" d="M56.75,34.23l2.6,3.77c1.99-1.38,3.87-2.23,7.09-2.23c0,0,0,0,0.01,0c0.41,0,0.8,0.01,1.18,0.04l0.35-4.56
			c-0.49-0.04-1.01-0.07-1.53-0.06C61.79,31.19,59.03,32.65,56.75,34.23z"/>
		<path class="st0" d="M96.03,33.8c-0.68,0.44-1.32,0.91-1.96,1.37c-1.87,1.37-3.48,2.55-6.2,2.95l0.67,4.53
			c3.84-0.57,6.18-2.28,8.24-3.79c0.57-0.42,1.14-0.83,1.74-1.22L96.03,33.8z"/>
		<path class="st0" d="M74.53,33.21l-2.25,3.98c0.86,0.49,1.65,1.06,2.48,1.67c1.83,1.34,3.91,2.87,7.09,3.57l0.99-4.47
			c-2.24-0.5-3.69-1.57-5.38-2.8C76.56,34.51,75.62,33.82,74.53,33.21z"/>
		<path class="st0" d="M47.13,38.27c-0.01,0-0.01,0-0.02,0c-1.29,0-2.43-0.14-3.47-0.44l-1.24,4.4c1.45,0.41,2.99,0.61,4.71,0.61
			c0.01,0,0.01,0,0.02,0c2.61,0,4.88-0.47,6.95-1.43l-1.93-4.15C50.68,37.95,49.09,38.27,47.13,38.27z"/>
	</g>
	<g>
		<path class="st1" d="M0,59.52v5.54c1.98,1.19,4.41,2.18,8.01,2.27l0.11-4.58c-3.82-0.09-5.72-1.48-7.92-3.09L0,59.52z"/>
		<path class="st1" d="M28.55,55.69l-0.16,4.57c3.69,0.13,5.57,1.5,7.73,3.08l0.38,0.28l2.69-3.7l-0.37-0.27
			C36.4,57.88,33.65,55.87,28.55,55.69z"/>
		<path class="st1" d="M16.81,59.66c-1.23,0.9-2.39,1.75-3.82,2.32l1.7,4.25c1.97-0.79,3.42-1.85,4.82-2.88
			c1.27-0.93,2.47-1.81,3.97-2.38l-1.62-4.28C19.78,57.48,18.2,58.64,16.81,59.66z"/>
		<path class="st1" d="M47.13,62.76c-1.3,0-2.44-0.14-3.49-0.44l-1.24,4.41c1.46,0.41,3,0.61,4.73,0.61c2.61,0,4.88-0.47,6.95-1.43
			l-1.93-4.15C50.68,62.44,49.09,62.76,47.13,62.76z"/>
		<path class="st1" d="M96.03,58.28c-0.68,0.44-1.32,0.91-1.96,1.37c-1.87,1.37-3.48,2.55-6.21,2.95l0.67,4.53
			c3.84-0.57,6.18-2.28,8.24-3.79c0.57-0.42,1.13-0.83,1.74-1.22L96.03,58.28z"/>
		<path class="st1" d="M56.75,58.72l2.6,3.77c1.99-1.38,3.88-2.23,7.1-2.23c0.41,0,0.81,0.01,1.18,0.04l0.35-4.56
			c-0.49-0.04-0.99-0.06-1.53-0.06C61.79,55.68,59.04,57.14,56.75,58.72z"/>
		<path class="st1" d="M74.53,57.7l-2.25,3.98c0.86,0.49,1.65,1.06,2.48,1.67c1.84,1.34,3.92,2.87,7.09,3.57l0.99-4.47
			c-2.24-0.5-3.69-1.56-5.38-2.8C76.56,59,75.62,58.31,74.53,57.7z"/>
	</g>
</g>
</svg>
