<?xml version="1.0" encoding="utf-8"?>
<!-- Generator: Adobe Illustrator 24.0.0, SVG Export Plug-In . SVG Version: 6.00 Build 0)  -->
<svg version="1.1" id="Layer_1" xmlns="http://www.w3.org/2000/svg" xmlns:xlink="http://www.w3.org/1999/xlink" x="0px" y="0px"
	 viewBox="0 0 100 100" style="enable-background:new 0 0 100 100;" xml:space="preserve">
<style type="text/css">
	.st0{fill:#52A79B;}
</style>
<g>
	<path class="st0" d="M100,54.25c-4.53,2.1-6.26,6.46-13.4,6.46c-9.41,0-9.41-7.57-18.81-7.57c-9.41,0-9.41,7.57-18.81,7.57
		s-9.41-7.57-18.81-7.57c-9.41,0-9.41,7.57-18.81,7.57c-5.86,0-8.08-2.94-11.19-5.15V100H100V54.25z"/>
	<polygon class="st0" points="70.89,47.87 92.87,37.77 70.75,27.98 	"/>
	<polygon class="st0" points="46.75,27.98 68.72,17.88 46.61,8.09 	"/>
	<g>
		<path class="st0" d="M46.68,20.32H36.02v-4.57h10.66V20.32z M29.93,20.32H19.27v-4.57h10.66V20.32z M13.18,20.32H2.52v-4.57h10.66
			V20.32z"/>
	</g>
	<g>
		<path class="st0" d="M71.85,40.21H61.19v-4.57h10.66V40.21z M55.1,40.21H44.44v-4.57H55.1V40.21z M38.35,40.21H27.69v-4.57h10.66
			V40.21z M21.6,40.21H10.95v-4.57H21.6V40.21z M4.86,40.21H0v-4.57h4.86V40.21z"/>
	</g>
</g>
</svg>
