<?xml version="1.0" encoding="utf-8"?>
<!-- Generator: Adobe Illustrator 24.0.0, SVG Export Plug-In . SVG Version: 6.00 Build 0)  -->
<svg version="1.1" id="Layer_1" xmlns="http://www.w3.org/2000/svg" xmlns:xlink="http://www.w3.org/1999/xlink" x="0px" y="0px"
	 viewBox="0 0 100 100" style="enable-background:new 0 0 100 100;" xml:space="preserve">
<style type="text/css">
	.st0{fill:#51A79A;}
	.st1{fill:#FFFFFF;}
</style>
<g>
	<path class="st0" d="M100,3.2c-4.54,2.11-6.27,6.47-13.42,6.47c-9.42,0-9.42-7.58-18.84-7.58c-9.42,0-9.42,7.58-18.84,7.58
		s-9.42-7.58-18.84-7.58c-9.42,0-9.42,7.58-18.84,7.58C5.33,9.67,3.12,6.73,0,4.51V100h100V3.2z"/>
	<path class="st1" d="M18.49,94.39c-0.26-2.48-0.64-4.95-1.17-7.39c-0.52-2.45-1.18-4.89-2.18-7.27c-1.04-2.41-2.27-4.42-3.23-6.66
		c-1-2.19-1.74-4.43-2.05-6.74C9.7,65.17,9.67,64,9.74,62.82c0.06-1.18,0.26-2.35,0.44-3.61c0.61-4.95,0.75-9.91,0.62-14.85h-0.3
		c-0.29,4.91-0.9,9.81-1.88,14.59c-0.24,1.17-0.55,2.42-0.7,3.7c-0.15,1.28-0.21,2.57-0.13,3.87c0.17,2.6,0.86,5.13,1.72,7.5
		c0.83,2.36,1.86,4.74,2.73,6.87c0.83,2.2,1.55,4.5,2.28,6.82c1.19,4.04,2.34,8.15,3.42,12.28h0.88
		C18.82,98.12,18.67,96.26,18.49,94.39z"/>
	<path class="st1" d="M20.53,99.45c0.15-0.75,0.41-1.52,0.6-2.28c0.38-1.54,0.72-3.1,0.93-4.7c0.23-1.61,0.31-3.21,0.24-4.91
		c-0.11-1.7-0.52-3.38-1.05-4.94c-1.13-3.12-2.5-5.76-3.57-8.66c-1.14-2.84-2.06-5.76-2.57-8.74c-1.13-5.95,0.36-12.06,1.54-18.23
		c0.54-3.11,0.95-6.29,0.75-9.48c-0.14-3.21-1.23-6.34-2.99-8.96l-0.26,0.16c1.56,2.69,2.4,5.76,2.33,8.82
		c-0.01,3.08-0.6,6.13-1.33,9.14c-0.71,3.03-1.56,6.06-2.11,9.21c-0.59,3.12-0.75,6.46-0.35,9.68c0.38,3.22,1.17,6.36,2.15,9.41
		c0.52,1.52,1.07,3,1.69,4.48c0.63,1.47,1.31,2.86,1.87,4.23c0.58,1.36,1,2.73,1.22,4.15c0.23,1.42,0.28,2.96,0.3,4.48
		c0,1.53-0.07,3.07-0.16,4.63c-0.02,0.79-0.11,1.55-0.1,2.36c0,0.23,0.02,0.45,0.03,0.68h0.73C20.45,99.82,20.5,99.63,20.53,99.45z"
		/>
	<path class="st1" d="M24.74,100c1.97-5.08,2.4-10.91,1.02-16.35c-0.78-3.3-1.87-6.4-2.52-9.51c-0.69-3.08-0.89-6.35-0.75-9.55
		c0.14-3.2,0.88-6.36,1.79-9.52c0.91-3.15,2.05-6.24,3.25-9.33c1.23-3.07,2.3-6.52,1.73-9.99c-0.57-3.4-2.37-6.31-2.56-9.61
		l-0.3,0.01c0,3.41,1.64,6.54,1.96,9.73c0.19,1.59-0.06,3.17-0.47,4.74c-0.41,1.57-1.05,3.01-1.76,4.54
		c-1.35,3.04-2.65,6.13-3.73,9.32c-1.07,3.17-2.01,6.48-2.33,9.93c-0.32,3.41-0.31,6.84,0.22,10.29c0.57,3.42,1.6,6.63,2.54,9.75
		c1.55,4.95,1.72,10.26,0.73,15.56H24.74z"/>
	<path class="st1" d="M31.96,98.7c0.19-2.6-0.14-5.2-0.6-7.67c-0.46-2.48-1.18-4.85-1.68-7.18c-0.56-2.34-0.92-4.73-1.1-7.14
		c-0.32-4.8-0.03-9.72,1.56-14.33l4.51-14.13l-0.29-0.1l-5.68,13.77c-1.94,4.66-2.57,9.83-2.55,14.89c0.02,2.54,0.21,5.08,0.58,7.61
		c0.41,2.54,1.04,4.94,1.68,7.29c0.64,2.34,1.18,4.66,1.43,7.01c0.04,0.43,0.07,0.85,0.09,1.28h1.9
		C31.86,99.57,31.93,99.13,31.96,98.7z"/>
	<path class="st1" d="M39.91,98.26c0.06-2.07-0.07-4.17-0.58-6.2c-0.51-2.03-1.33-3.99-2.24-5.88c-0.49-0.99-0.92-1.76-1.24-2.66
		c-0.34-0.88-0.61-1.81-0.85-2.76c-0.92-3.79-1.23-7.78-1.26-11.75c-0.04-3.98,0.32-7.98,0.91-11.95L34.35,57
		c-0.95,3.91-1.6,7.92-1.87,11.97c-0.3,4.05-0.18,8.14,0.54,12.22c0.19,1.02,0.42,2.04,0.75,3.05c0.29,1.02,0.79,2.04,1.09,2.9
		c0.68,1.8,1.06,3.7,1.4,5.59l1.13,5.72c0.1,0.51,0.2,1.03,0.3,1.55h2.1C39.85,99.42,39.89,98.84,39.91,98.26z"/>
	<path class="st1" d="M42.67,84.67c-0.56-1.49-0.92-2.84-1.16-4.39c-0.27-1.52-0.43-3.07-0.49-4.64c-0.19-3.14,0.04-6.35,0.33-9.58
		c0.61-6.45,1.51-13.02,1.1-19.65c-0.26-3.3-0.88-6.62-2.15-9.69c-1.26-3.08-3.22-5.84-5.69-8.02l-0.21,0.22
		c2.29,2.3,4.01,5.1,5.04,8.12c1.04,3.03,1.44,6.23,1.49,9.43c0.1,6.43-1.08,12.82-2,19.3c-0.45,3.25-0.89,6.55-0.92,9.93
		c0.01,1.69,0.11,3.39,0.37,5.09c0.24,1.67,0.79,3.47,1.46,5.01c0.68,1.56,1.43,3,2.07,4.44c0.67,1.44,1.24,2.93,1.8,4.43
		c0.62,1.74,1.16,3.52,1.6,5.34h1.25C46.35,94.68,44.65,89.37,42.67,84.67z"/>
	<path class="st1" d="M50.96,95.89c-0.74-2.87-1.08-5.67-1.03-8.57c0.09-5.78,0.98-11.7,1.65-17.77c0.69-6.14,0.26-12.29-0.6-18.29
		c-0.88-6.05-2.87-11.79-2.91-17.82l-0.3-0.01c-0.38,6.1,1.25,12.09,1.7,18.01c0.55,5.97,0.65,11.96-0.31,17.79
		c-0.9,5.87-2.63,11.83-2.28,18.15c0.16,3.12,0.83,6.34,2.04,9.18c0.48,1.18,1.05,2.32,1.68,3.43h1.61
		C51.73,98.65,51.32,97.28,50.96,95.89z"/>
	<path class="st1" d="M57.45,91.28c0.23-2.52,0.71-4.85,1.4-7.38c0.62-2.51,1.37-5.09,1.78-7.8c0.84-5.48-0.14-10.86-1.23-15.97
		c-0.58-2.57-1.19-5.1-1.67-7.67c-0.5-2.57-0.99-5.13-0.87-7.74l-0.3-0.03c-0.33,2.64-0.03,5.31,0.27,7.91
		c0.28,2.61,0.7,5.23,1.07,7.81c0.8,5.14,1.39,10.36,0.33,15.26c-0.53,2.46-1.42,4.87-2.28,7.39c-0.4,1.27-0.79,2.54-1.09,3.92
		c-0.27,1.37-0.41,2.75-0.46,4.11c-0.06,2.75,0.15,5.33,0.43,8c0.04,0.3,0.1,0.6,0.15,0.9h1.98c0-0.33,0-0.66,0.01-1
		C57.15,96.44,57.19,93.77,57.45,91.28z"/>
	<path class="st1" d="M70.45,90.28c2.03-5.77,1.21-11.79-0.35-17.25c-1.65-5.51-4.42-10.36-5.52-15.67
		c-0.57-2.62-0.72-5.37-0.05-7.99c0.13-0.66,0.37-1.3,0.64-1.94l0.76-1.93l1.52-3.87l-0.27-0.14l-1.81,3.77l-0.91,1.89
		c-0.32,0.62-0.61,1.26-0.8,1.96c-0.92,2.72-0.98,5.69-0.58,8.51c0.88,5.68,3.43,10.81,4.67,16.02c1.24,5.22,1.12,10.75-0.18,15.64
		c-0.72,2.42-2.13,4.84-3.14,7.55c-0.38,1.01-0.69,2.07-0.86,3.16h1.72c0.31-0.78,0.68-1.53,1.09-2.27
		C67.69,95.4,69.35,93.12,70.45,90.28z"/>
	<path class="st1" d="M79.67,97.71c-0.68-2.48-1.15-5.03-1.43-7.58c-0.57-5.04-0.41-10.28-0.45-15.69
		c-0.05-5.51-1.34-10.82-2.82-15.94c-0.37-1.26-0.71-2.53-1-3.82c-0.32-1.29-0.48-2.53-0.58-3.87c-0.22-2.63-0.2-5.28,0.03-7.92
		l-0.3-0.04c-0.44,2.63-0.66,5.31-0.65,8c-0.01,1.32,0.07,2.74,0.29,4.05c0.19,1.33,0.43,2.66,0.72,3.97
		c1.18,5.15,2.11,10.37,1.85,15.52c-0.21,5.21-1.2,10.65-0.13,16.17c0.51,2.7,1.26,5.36,2.43,7.87c0.24,0.52,0.51,1.03,0.79,1.54
		h1.97C80.14,99.24,79.89,98.48,79.67,97.71z"/>
	<path class="st1" d="M86.81,81.07c-0.4-1.69-0.88-3.44-1.14-5.04c-0.58-3.27-0.4-6.73-0.03-10.2c0.38-3.47,0.91-7.04,1.01-10.64
		c0.12-3.59-0.07-7.2-0.66-10.75c-0.64-3.57-1.85-6.9-2.48-10.34c-0.32-1.71-0.5-3.45-0.36-5.18c0.13-1.73,0.61-3.43,1.37-5.01
		l-0.27-0.14c-0.87,1.56-1.47,3.29-1.71,5.08c-0.25,1.79-0.16,3.61,0.07,5.39c0.45,3.56,1.47,6.99,1.88,10.43
		c0.43,3.45,0.46,6.95,0.19,10.42c-0.25,3.47-0.9,6.9-1.45,10.43c-0.54,3.52-0.96,7.19-0.54,10.95c0.27,1.9,0.65,3.59,1.05,5.34
		c0.43,1.73,0.88,3.43,1.26,5.12c0.84,3.37,1.47,6.73,1.49,10.14c0.01,0.97-0.05,1.95-0.13,2.94h1.8c0.2-0.92,0.37-1.86,0.47-2.82
		c0.44-3.67,0.01-7.38-0.65-10.91C87.61,84.51,87.2,82.78,86.81,81.07z"/>
	<path class="st1" d="M94.02,79.36c-0.54-2.56-1.05-5.07-1.5-7.63c-0.88-5.09-1.55-10.21-1.88-15.37c-0.2-2.59-0.32-5.13-0.11-7.71
		c0.18-2.57,0.53-5.15,0.8-7.74l-0.3-0.04c-0.47,2.55-1.02,5.09-1.41,7.69c-0.42,2.59-0.5,5.26-0.5,7.86
		c0.03,5.23,0.41,10.46,0.99,15.66l1.81,15.38c0.3,2.55,0.53,5.11,0.8,7.69l0.42,3.9c0.05,0.33,0.11,0.65,0.15,0.96h1.13
		c0.04-0.34,0.07-0.67,0.11-1c0.12-1.26,0.26-2.6,0.33-3.9c0.18-2.62,0.19-5.25,0.09-7.88C94.86,84.59,94.52,81.96,94.02,79.36z"/>
	<path class="st1" d="M6.98,85.77C5.9,80.28,4.81,74.76,4.65,69.13c-0.08-2.81,0.01-5.62,0.31-8.42c0.26-2.78,0.96-5.57,1.15-8.53
		c0.2-5.98-1.75-11.44-2.45-17.1l-0.3,0.03c0.31,5.71,1.83,11.42,1.23,16.94c-0.31,2.74-1.15,5.5-1.59,8.39
		c-0.46,2.87-0.71,5.78-0.78,8.69c-0.11,5.81,0.22,11.71,1.8,17.34c0.79,2.65,1.17,5.38,1.69,8.23c0.26,1.44,0.56,2.81,0.87,4.23
		c0.08,0.36,0.2,0.7,0.31,1.06h1.14C7.75,95.33,8.04,90.61,6.98,85.77z"/>
	<path class="st1" d="M64.12,86.08c0.52-3.27,0.87-6.59,0.83-9.91c-0.07-3.32-0.48-6.62-1.33-9.8l-0.3,0.06
		c0.37,3.24,0.45,6.48,0.12,9.68c-0.26,3.2-0.88,6.36-1.68,9.48c-0.76,3.13-2.01,6.14-2.58,9.42c-0.29,1.61-0.49,3.28-0.46,4.99
		h2.33c0.31-1.42,0.74-2.85,1.13-4.3C63.08,92.62,63.57,89.34,64.12,86.08z"/>
	<path class="st1" d="M84.54,94.6c-0.24-2.81-1.23-5.44-1.87-8.09c-0.66-2.65-1.23-5.3-1.48-7.99c-0.34-2.68-0.15-5.42-0.02-8.19
		l-0.3-0.04c-0.61,2.69-1.13,5.44-1.2,8.28c-0.06,2.82,0.23,5.63,0.6,8.39c0.39,2.76,0.59,5.52,1.26,8.14
		c0.4,1.63,0.8,3.26,1.22,4.9h1.76C84.73,98.2,84.71,96.37,84.54,94.6z"/>
</g>
</svg>
