<?xml version="1.0" encoding="utf-8"?>
<!-- Generator: Adobe Illustrator 24.0.2, SVG Export Plug-In . SVG Version: 6.00 Build 0)  -->
<svg version="1.1" id="Layer_1" xmlns="http://www.w3.org/2000/svg" xmlns:xlink="http://www.w3.org/1999/xlink" x="0px" y="0px"
	 viewBox="0 0 100 100" style="enable-background:new 0 0 100 100;" xml:space="preserve">
<style type="text/css">
	.st0{fill:#51A79A;}
	.st1{fill:#FFFFFF;}
</style>
<g>
	<path class="st0" d="M99.6,3.5C95.1,5.6,93.4,10,86.3,10c-9.4,0-9.4-7.6-18.8-7.6c-9.4,0-9.4,7.6-18.8,7.6s-9.4-7.6-18.8-7.6
		c-9.4,0-9.4,7.6-18.8,7.6C5.3,10,3.1,7.1,0,4.8V100h99.6V3.5z"/>
	<g>
		<path class="st1" d="M52.1,60.4c0-1.3-0.5-2.3-1.4-3c-0.9-0.7-2.6-1.4-5-2.1c-2.4-0.7-4.3-1.5-5.7-2.4c-2.7-1.7-4.1-3.9-4.1-6.6
			c0-2.4,1-4.4,2.9-5.9c1.9-1.5,4.5-2.3,7.6-2.3c2.1,0,3.9,0.4,5.5,1.1c1.6,0.8,2.9,1.8,3.8,3.2c0.9,1.4,1.4,3,1.4,4.7h-5.1
			c0-1.5-0.5-2.8-1.5-3.6c-1-0.9-2.4-1.3-4.2-1.3c-1.7,0-3,0.4-3.9,1.1s-1.4,1.7-1.4,3c0,1.1,0.5,2,1.5,2.7c1,0.7,2.7,1.4,5,2.1
			c2.3,0.7,4.2,1.5,5.6,2.3c1.4,0.9,2.4,1.9,3.1,3c0.7,1.1,1,2.5,1,4c0,2.5-0.9,4.4-2.8,5.9c-1.9,1.5-4.5,2.2-7.7,2.2
			c-2.1,0-4.1-0.4-5.9-1.2c-1.8-0.8-3.2-1.9-4.2-3.3c-1-1.4-1.5-3-1.5-4.9h5.2c0,1.7,0.6,3,1.7,3.9c1.1,0.9,2.7,1.4,4.8,1.4
			c1.8,0,3.1-0.4,4-1.1C51.6,62.5,52.1,61.6,52.1,60.4z"/>
		<path class="st1" d="M61.3,40.2c0-0.8,0.2-1.4,0.7-1.9c0.5-0.5,1.2-0.8,2.1-0.8s1.6,0.3,2.1,0.8c0.5,0.5,0.7,1.1,0.7,1.9
			c0,0.7-0.2,1.4-0.7,1.9c-0.5,0.5-1.2,0.7-2.1,0.7s-1.6-0.2-2.1-0.7C61.5,41.6,61.3,41,61.3,40.2z M66.6,68h-5V46h5V68z"/>
	</g>
	<circle class="st1" cx="86.9" cy="41.8" r="3.7"/>
	<circle class="st1" cx="20.8" cy="27" r="3.7"/>
	<circle class="st1" cx="15" cy="85.6" r="3.7"/>
	<circle class="st1" cx="79.5" cy="91.5" r="3.7"/>
</g>
</svg>
